G04 EAGLE Gerber RS-274X export*
G75*
%MOMM*%
%FSLAX36Y36*%
%LPD*%
%IN*%
%IPPOS*%
%AMOC8*
5,1,8,0,0,1.08239X$1,22.5*%
G01*
%ADD10C,0.254000*%


D10*
X0Y0D02*
X70000000Y100000D01*
X70000000Y79000000D01*
X0Y79000000D01*
X0Y0D01*
X63280000Y15787622D02*
X63286850Y15683088D01*
X63300525Y15579228D01*
X63320963Y15476484D01*
X63348075Y15375297D01*
X63381747Y15276097D01*
X63421838Y15179316D01*
X63468169Y15085363D01*
X63520550Y14994638D01*
X63578750Y14907538D01*
X63642522Y14824428D01*
X63711591Y14745666D01*
X63785666Y14671591D01*
X63864428Y14602522D01*
X63947538Y14538750D01*
X64034638Y14480550D01*
X64125363Y14428169D01*
X64219316Y14381838D01*
X64316097Y14341747D01*
X64415297Y14308075D01*
X64516484Y14280963D01*
X64619228Y14260525D01*
X64723088Y14246850D01*
X64827622Y14240000D01*
X64932378Y14240000D01*
X65036913Y14246850D01*
X65140772Y14260525D01*
X65243516Y14280963D01*
X65344703Y14308075D01*
X65443903Y14341747D01*
X65540684Y14381838D01*
X65634638Y14428169D01*
X65725363Y14480550D01*
X65812463Y14538750D01*
X65895572Y14602522D01*
X65974334Y14671591D01*
X66048409Y14745666D01*
X66117478Y14824428D01*
X66181250Y14907538D01*
X66239450Y14994638D01*
X66291831Y15085363D01*
X66338163Y15179316D01*
X66378253Y15276097D01*
X66411925Y15375297D01*
X66439038Y15476484D01*
X66459475Y15579228D01*
X66473150Y15683088D01*
X66480000Y15787622D01*
X66480000Y15892378D01*
X66473150Y15996913D01*
X66459475Y16100772D01*
X66439038Y16203516D01*
X66411925Y16304703D01*
X66378253Y16403903D01*
X66338163Y16500684D01*
X66291831Y16594638D01*
X66239450Y16685363D01*
X66181250Y16772463D01*
X66117478Y16855572D01*
X66048409Y16934334D01*
X65974334Y17008409D01*
X65895572Y17077478D01*
X65812463Y17141250D01*
X65725363Y17199450D01*
X65634638Y17251831D01*
X65540684Y17298163D01*
X65443903Y17338253D01*
X65344703Y17371925D01*
X65243516Y17399038D01*
X65140772Y17419475D01*
X65036913Y17433150D01*
X64932378Y17440000D01*
X64827622Y17440000D01*
X64723088Y17433150D01*
X64619228Y17419475D01*
X64516484Y17399038D01*
X64415297Y17371925D01*
X64316097Y17338253D01*
X64219316Y17298163D01*
X64125363Y17251831D01*
X64034638Y17199450D01*
X63947538Y17141250D01*
X63864428Y17077478D01*
X63785666Y17008409D01*
X63711591Y16934334D01*
X63642522Y16855572D01*
X63578750Y16772463D01*
X63520550Y16685363D01*
X63468169Y16594638D01*
X63421838Y16500684D01*
X63381747Y16403903D01*
X63348075Y16304703D01*
X63320963Y16203516D01*
X63300525Y16100772D01*
X63286850Y15996913D01*
X63280000Y15892378D01*
X63280000Y15787622D01*
X3280000Y15787622D02*
X3286850Y15683088D01*
X3300525Y15579228D01*
X3320963Y15476484D01*
X3348075Y15375297D01*
X3381747Y15276097D01*
X3421838Y15179316D01*
X3468169Y15085363D01*
X3520550Y14994638D01*
X3578750Y14907538D01*
X3642522Y14824428D01*
X3711591Y14745666D01*
X3785666Y14671591D01*
X3864428Y14602522D01*
X3947538Y14538750D01*
X4034638Y14480550D01*
X4125363Y14428169D01*
X4219316Y14381838D01*
X4316097Y14341747D01*
X4415297Y14308075D01*
X4516484Y14280963D01*
X4619228Y14260525D01*
X4723088Y14246850D01*
X4827622Y14240000D01*
X4932378Y14240000D01*
X5036913Y14246850D01*
X5140772Y14260525D01*
X5243516Y14280963D01*
X5344703Y14308075D01*
X5443903Y14341747D01*
X5540684Y14381838D01*
X5634638Y14428169D01*
X5725363Y14480550D01*
X5812463Y14538750D01*
X5895572Y14602522D01*
X5974334Y14671591D01*
X6048409Y14745666D01*
X6117478Y14824428D01*
X6181250Y14907538D01*
X6239450Y14994638D01*
X6291831Y15085363D01*
X6338163Y15179316D01*
X6378253Y15276097D01*
X6411925Y15375297D01*
X6439038Y15476484D01*
X6459475Y15579228D01*
X6473150Y15683088D01*
X6480000Y15787622D01*
X6480000Y15892378D01*
X6473150Y15996913D01*
X6459475Y16100772D01*
X6439038Y16203516D01*
X6411925Y16304703D01*
X6378253Y16403903D01*
X6338163Y16500684D01*
X6291831Y16594638D01*
X6239450Y16685363D01*
X6181250Y16772463D01*
X6117478Y16855572D01*
X6048409Y16934334D01*
X5974334Y17008409D01*
X5895572Y17077478D01*
X5812463Y17141250D01*
X5725363Y17199450D01*
X5634638Y17251831D01*
X5540684Y17298163D01*
X5443903Y17338253D01*
X5344703Y17371925D01*
X5243516Y17399038D01*
X5140772Y17419475D01*
X5036913Y17433150D01*
X4932378Y17440000D01*
X4827622Y17440000D01*
X4723088Y17433150D01*
X4619228Y17419475D01*
X4516484Y17399038D01*
X4415297Y17371925D01*
X4316097Y17338253D01*
X4219316Y17298163D01*
X4125363Y17251831D01*
X4034638Y17199450D01*
X3947538Y17141250D01*
X3864428Y17077478D01*
X3785666Y17008409D01*
X3711591Y16934334D01*
X3642522Y16855572D01*
X3578750Y16772463D01*
X3520550Y16685363D01*
X3468169Y16594638D01*
X3421838Y16500684D01*
X3381747Y16403903D01*
X3348075Y16304703D01*
X3320963Y16203516D01*
X3300525Y16100772D01*
X3286850Y15996913D01*
X3280000Y15892378D01*
X3280000Y15787622D01*
X22280000Y70787622D02*
X22286850Y70683088D01*
X22300525Y70579228D01*
X22320963Y70476484D01*
X22348075Y70375297D01*
X22381747Y70276097D01*
X22421838Y70179316D01*
X22468169Y70085363D01*
X22520550Y69994638D01*
X22578750Y69907538D01*
X22642522Y69824428D01*
X22711591Y69745666D01*
X22785666Y69671591D01*
X22864428Y69602522D01*
X22947538Y69538750D01*
X23034638Y69480550D01*
X23125363Y69428169D01*
X23219316Y69381838D01*
X23316097Y69341747D01*
X23415297Y69308075D01*
X23516484Y69280963D01*
X23619228Y69260525D01*
X23723088Y69246850D01*
X23827622Y69240000D01*
X23932378Y69240000D01*
X24036913Y69246850D01*
X24140772Y69260525D01*
X24243516Y69280963D01*
X24344703Y69308075D01*
X24443903Y69341747D01*
X24540684Y69381838D01*
X24634638Y69428169D01*
X24725363Y69480550D01*
X24812463Y69538750D01*
X24895572Y69602522D01*
X24974334Y69671591D01*
X25048409Y69745666D01*
X25117478Y69824428D01*
X25181250Y69907538D01*
X25239450Y69994638D01*
X25291831Y70085363D01*
X25338163Y70179316D01*
X25378253Y70276097D01*
X25411925Y70375297D01*
X25439038Y70476484D01*
X25459475Y70579228D01*
X25473150Y70683088D01*
X25480000Y70787622D01*
X25480000Y70892378D01*
X25473150Y70996913D01*
X25459475Y71100772D01*
X25439038Y71203516D01*
X25411925Y71304703D01*
X25378253Y71403903D01*
X25338163Y71500684D01*
X25291831Y71594638D01*
X25239450Y71685363D01*
X25181250Y71772463D01*
X25117478Y71855572D01*
X25048409Y71934334D01*
X24974334Y72008409D01*
X24895572Y72077478D01*
X24812463Y72141250D01*
X24725363Y72199450D01*
X24634638Y72251831D01*
X24540684Y72298163D01*
X24443903Y72338253D01*
X24344703Y72371925D01*
X24243516Y72399038D01*
X24140772Y72419475D01*
X24036913Y72433150D01*
X23932378Y72440000D01*
X23827622Y72440000D01*
X23723088Y72433150D01*
X23619228Y72419475D01*
X23516484Y72399038D01*
X23415297Y72371925D01*
X23316097Y72338253D01*
X23219316Y72298163D01*
X23125363Y72251831D01*
X23034638Y72199450D01*
X22947538Y72141250D01*
X22864428Y72077478D01*
X22785666Y72008409D01*
X22711591Y71934334D01*
X22642522Y71855572D01*
X22578750Y71772463D01*
X22520550Y71685363D01*
X22468169Y71594638D01*
X22421838Y71500684D01*
X22381747Y71403903D01*
X22348075Y71304703D01*
X22320963Y71203516D01*
X22300525Y71100772D01*
X22286850Y70996913D01*
X22280000Y70892378D01*
X22280000Y70787622D01*
M02*
