G04 EAGLE Gerber RS-274X export*
G75*
%MOMM*%
%FSLAX36Y36*%
%LPD*%
%INBottom Copper*%
%IPPOS*%
%AMOC8*
5,1,8,0,0,1.08239X$1,22.5*%
G01*
%ADD10R,1.778000X1.778000*%
%ADD11C,1.500000*%
%ADD12R,1.500000X1.300000*%
%ADD13R,1.300000X1.500000*%
%ADD14R,1.600200X1.168400*%
%ADD15R,2.540000X2.540000*%
%ADD16C,1.930400*%
%ADD17C,1.000000*%
%ADD18C,1.930400*%
%ADD19P,1.732040X8X202.500000*%
%ADD20C,1.600200*%
%ADD21P,1.732040X8X22.500000*%
%ADD22R,1.168400X1.600200*%
%ADD23C,1.016000*%
%ADD24C,2.000000*%
%ADD25C,0.750000*%
%ADD26C,0.508000*%
%ADD27C,1.270000*%
%ADD28C,1.200000*%
%ADD29C,0.609600*%
%ADD30C,0.304800*%

G36*
X21653109Y330928D02*
X21653109Y330928D01*
X21654994Y331241D01*
X21656891Y331028D01*
X21667100Y333238D01*
X21677391Y334938D01*
X21679072Y335831D01*
X21680941Y336234D01*
X21689925Y341591D01*
X21699125Y346475D01*
X21700434Y347859D01*
X21702078Y348838D01*
X21708884Y356775D01*
X21716050Y364338D01*
X21716850Y366066D01*
X21718097Y367519D01*
X21722019Y377216D01*
X21726400Y386666D01*
X21726609Y388559D01*
X21727325Y390331D01*
X21729200Y407128D01*
X21729200Y6321041D01*
X25808956Y10400797D01*
X28477394Y10400797D01*
X28486353Y10402263D01*
X28495416Y10402959D01*
X28498441Y10404241D01*
X28501681Y10404772D01*
X28509709Y10409019D01*
X28518075Y10412566D01*
X28521328Y10415166D01*
X28523431Y10416278D01*
X28525678Y10418644D01*
X28531275Y10423116D01*
X30848956Y12740797D01*
X40611041Y12740797D01*
X45178722Y8173116D01*
X45186094Y8167819D01*
X45192994Y8161900D01*
X45196038Y8160669D01*
X45198703Y8158753D01*
X45207391Y8156075D01*
X45215806Y8152672D01*
X45219934Y8152213D01*
X45222222Y8151506D01*
X45225500Y8151591D01*
X45232603Y8150797D01*
X53751041Y8150797D01*
X53780797Y8121041D01*
X53780797Y453134D01*
X53781125Y451138D01*
X53780903Y449138D01*
X53783103Y439047D01*
X53784772Y428847D01*
X53785713Y427066D01*
X53786144Y425094D01*
X53791453Y416219D01*
X53796278Y407097D01*
X53797741Y405706D01*
X53798778Y403972D01*
X53806625Y397263D01*
X53814116Y390144D01*
X53815950Y389291D01*
X53817481Y387981D01*
X53827053Y384125D01*
X53836428Y379763D01*
X53838434Y379538D01*
X53840306Y378784D01*
X53857106Y376934D01*
X69623909Y399459D01*
X69625794Y399772D01*
X69627691Y399559D01*
X69637900Y401769D01*
X69648191Y403469D01*
X69649872Y404363D01*
X69651741Y404766D01*
X69660725Y410122D01*
X69669925Y415006D01*
X69671234Y416391D01*
X69672878Y417369D01*
X69679684Y425306D01*
X69686850Y432869D01*
X69687650Y434597D01*
X69688897Y436050D01*
X69692819Y445747D01*
X69697200Y455197D01*
X69697409Y457091D01*
X69698125Y458863D01*
X69700000Y475659D01*
X69700000Y78623800D01*
X69699681Y78625741D01*
X69699900Y78627691D01*
X69697700Y78637853D01*
X69696025Y78648088D01*
X69695109Y78649816D01*
X69694694Y78651741D01*
X69689359Y78660688D01*
X69684519Y78669838D01*
X69683100Y78671188D01*
X69682091Y78672878D01*
X69674206Y78679641D01*
X69666681Y78686791D01*
X69664897Y78687619D01*
X69663409Y78688897D01*
X69653797Y78692784D01*
X69644369Y78697172D01*
X69642416Y78697391D01*
X69640597Y78698125D01*
X69623800Y78700000D01*
X376197Y78700000D01*
X374256Y78699681D01*
X372306Y78699900D01*
X362144Y78697700D01*
X351909Y78696025D01*
X350181Y78695109D01*
X348256Y78694694D01*
X339309Y78689359D01*
X330159Y78684519D01*
X328809Y78683100D01*
X327119Y78682091D01*
X320356Y78674206D01*
X313206Y78666681D01*
X312378Y78664897D01*
X311100Y78663409D01*
X307213Y78653797D01*
X302825Y78644369D01*
X302606Y78642416D01*
X301872Y78640597D01*
X299997Y78623800D01*
X299997Y376734D01*
X300325Y374738D01*
X300103Y372738D01*
X302303Y362647D01*
X303972Y352447D01*
X304913Y350666D01*
X305344Y348694D01*
X310653Y339819D01*
X315478Y330697D01*
X316941Y329306D01*
X317978Y327572D01*
X325825Y320863D01*
X333316Y313744D01*
X335150Y312891D01*
X336681Y311581D01*
X346253Y307725D01*
X355628Y303363D01*
X357634Y303138D01*
X359506Y302384D01*
X376306Y300534D01*
X21653109Y330928D01*
G37*
%LPC*%
G36*
X58257056Y1903800D02*
X58257056Y1903800D01*
X56848434Y1903800D01*
X55273800Y3478434D01*
X55273800Y9566872D01*
X55272334Y9575831D01*
X55271638Y9584894D01*
X55270356Y9587919D01*
X55269825Y9591159D01*
X55267944Y9594713D01*
X55267766Y9595541D01*
X55265544Y9599266D01*
X55262031Y9607553D01*
X55259431Y9610806D01*
X55258319Y9612909D01*
X55256222Y9614903D01*
X55255163Y9616678D01*
X55253813Y9617834D01*
X55251481Y9620753D01*
X55250753Y9621481D01*
X55244791Y9625769D01*
X55240481Y9629863D01*
X55238963Y9630569D01*
X55236481Y9632697D01*
X55233438Y9633928D01*
X55230772Y9635844D01*
X55222084Y9638522D01*
X55220459Y9639178D01*
X55218169Y9640244D01*
X55217694Y9640297D01*
X55213669Y9641925D01*
X55209541Y9642384D01*
X55207253Y9643091D01*
X55203975Y9643006D01*
X55196872Y9643800D01*
X46549841Y9643800D01*
X46543181Y9642709D01*
X46488397Y9643784D01*
X46487803Y9643700D01*
X46486903Y9643800D01*
X46456016Y9643800D01*
X46434550Y9666125D01*
X46434063Y9666488D01*
X46433503Y9667191D01*
X46397606Y9703088D01*
X46396778Y9704653D01*
X46394606Y9706719D01*
X46390988Y9711431D01*
X42065044Y14210416D01*
X42057181Y14216303D01*
X42049725Y14222697D01*
X42047372Y14223647D01*
X42045347Y14225166D01*
X42036019Y14228241D01*
X42026913Y14231925D01*
X42023791Y14232275D01*
X42021975Y14232872D01*
X42018609Y14232853D01*
X42010116Y14233800D01*
X30303125Y14233800D01*
X30294166Y14232334D01*
X30285103Y14231638D01*
X30282078Y14230356D01*
X30278838Y14229825D01*
X30270809Y14225578D01*
X30262444Y14222031D01*
X30259191Y14219431D01*
X30257088Y14218319D01*
X30254841Y14215953D01*
X30249244Y14211481D01*
X27864838Y11827075D01*
X27864500Y11826606D01*
X27863831Y11826050D01*
X27842406Y11803800D01*
X27811394Y11803800D01*
X27810825Y11803706D01*
X27809956Y11803788D01*
X24855950Y11748053D01*
X24847703Y11746544D01*
X24839366Y11745903D01*
X24835688Y11744344D01*
X24831744Y11743622D01*
X24824406Y11739563D01*
X24816706Y11736297D01*
X24812650Y11733056D01*
X24810213Y11731706D01*
X24808172Y11729475D01*
X24803506Y11725747D01*
X20078516Y7000756D01*
X20073219Y6993384D01*
X20067300Y6986484D01*
X20066069Y6983441D01*
X20064153Y6980775D01*
X20061475Y6972088D01*
X20058072Y6963672D01*
X20057613Y6959544D01*
X20056906Y6957256D01*
X20056991Y6953978D01*
X20056197Y6946875D01*
X20056197Y1968434D01*
X20011563Y1923800D01*
X1968434Y1923800D01*
X1923800Y1968434D01*
X1923800Y56493800D01*
X1923481Y56495741D01*
X1923700Y56497691D01*
X1921500Y56507853D01*
X1919825Y56518088D01*
X1918909Y56519816D01*
X1918494Y56521741D01*
X1913159Y56530688D01*
X1908319Y56539838D01*
X1906900Y56541188D01*
X1905891Y56542878D01*
X1898006Y56549641D01*
X1890481Y56556791D01*
X1888697Y56557619D01*
X1887209Y56558897D01*
X1877597Y56562784D01*
X1868169Y56567172D01*
X1866216Y56567391D01*
X1864397Y56568125D01*
X1847600Y56570000D01*
X1535156Y56570000D01*
X1418000Y56687156D01*
X1418000Y59392841D01*
X1535156Y59509997D01*
X1847600Y59509997D01*
X1849541Y59510316D01*
X1851491Y59510097D01*
X1861653Y59512297D01*
X1871888Y59513972D01*
X1873616Y59514888D01*
X1875541Y59515303D01*
X1884488Y59520638D01*
X1893638Y59525478D01*
X1894988Y59526897D01*
X1896678Y59527906D01*
X1903441Y59535791D01*
X1910591Y59543316D01*
X1911419Y59545100D01*
X1912697Y59546588D01*
X1916581Y59556194D01*
X1920972Y59565628D01*
X1921191Y59567581D01*
X1921925Y59569400D01*
X1923800Y59586197D01*
X1923800Y75035800D01*
X1923481Y75037741D01*
X1923700Y75039691D01*
X1921500Y75049853D01*
X1919825Y75060088D01*
X1918909Y75061816D01*
X1918494Y75063741D01*
X1913159Y75072688D01*
X1908319Y75081838D01*
X1906900Y75083188D01*
X1905891Y75084878D01*
X1898006Y75091641D01*
X1890481Y75098791D01*
X1888697Y75099619D01*
X1887209Y75100897D01*
X1877597Y75104784D01*
X1868169Y75109172D01*
X1866216Y75109391D01*
X1864397Y75110125D01*
X1847600Y75112000D01*
X1535156Y75112000D01*
X1418000Y75229156D01*
X1418000Y77934841D01*
X1535156Y78051997D01*
X6780841Y78051997D01*
X6897997Y77934841D01*
X6897997Y77059931D01*
X6898325Y77057931D01*
X6898103Y77055925D01*
X6900303Y77045834D01*
X6901972Y77035644D01*
X6902916Y77033859D01*
X6903347Y77031884D01*
X6908650Y77023019D01*
X6913478Y77013894D01*
X6914944Y77012503D01*
X6915981Y77010766D01*
X6923819Y77004066D01*
X6931316Y76996941D01*
X6933156Y76996084D01*
X6934688Y76994775D01*
X6944241Y76990928D01*
X6953628Y76986559D01*
X6955641Y76986334D01*
X6957513Y76985581D01*
X6974313Y76983731D01*
X67936894Y77076100D01*
X67937481Y77076197D01*
X67998978Y77076197D01*
X67999025Y77076203D01*
X67999094Y77076197D01*
X68031513Y77076247D01*
X68053725Y77054031D01*
X68053759Y77054006D01*
X68053809Y77053944D01*
X68076197Y77031625D01*
X68076197Y77000209D01*
X68076203Y77000163D01*
X68076197Y77000094D01*
X68076294Y76937863D01*
X68076197Y76937006D01*
X68076197Y67194197D01*
X68076516Y67192256D01*
X68076297Y67190306D01*
X68078497Y67180144D01*
X68080172Y67169909D01*
X68081088Y67168181D01*
X68081503Y67166256D01*
X68086838Y67157309D01*
X68091678Y67148159D01*
X68093097Y67146809D01*
X68094106Y67145119D01*
X68101991Y67138356D01*
X68109516Y67131206D01*
X68111300Y67130378D01*
X68112788Y67129100D01*
X68122400Y67125213D01*
X68131828Y67120825D01*
X68133781Y67120606D01*
X68135600Y67119872D01*
X68152397Y67117997D01*
X69052841Y67117997D01*
X69169997Y67000841D01*
X69169997Y61755156D01*
X69052841Y61638000D01*
X68152397Y61638000D01*
X68150456Y61637681D01*
X68148506Y61637900D01*
X68138344Y61635700D01*
X68128109Y61634025D01*
X68126381Y61633109D01*
X68124456Y61632694D01*
X68115509Y61627359D01*
X68106359Y61622519D01*
X68105009Y61621100D01*
X68103319Y61620091D01*
X68096556Y61612206D01*
X68089406Y61604681D01*
X68088578Y61602897D01*
X68087300Y61601409D01*
X68083413Y61591797D01*
X68079025Y61582369D01*
X68078806Y61580416D01*
X68078072Y61578597D01*
X68076197Y61561800D01*
X68076197Y2000638D01*
X68076206Y2000575D01*
X68076197Y2000481D01*
X68076263Y1968503D01*
X68054334Y1946575D01*
X68054297Y1946522D01*
X68054219Y1946459D01*
X68031653Y1923800D01*
X68000244Y1923800D01*
X68000181Y1923791D01*
X68000088Y1923800D01*
X58383097Y1903931D01*
X58382306Y1903800D01*
X58320694Y1903800D01*
X58320631Y1903791D01*
X58320538Y1903800D01*
X58258209Y1903672D01*
X58257056Y1903800D01*
G37*
%LPD*%
D10*
X25200000Y25540000D03*
X53140000Y48500000D03*
X25200000Y43420000D03*
X25200000Y40880000D03*
X25200000Y38340000D03*
X25200000Y35800000D03*
X25200000Y33260000D03*
X25200000Y30720000D03*
X25200000Y28180000D03*
X25200000Y48500000D03*
X25200000Y23100000D03*
X25200000Y18020000D03*
X53140000Y35800000D03*
X25200000Y15480000D03*
X25200000Y12940000D03*
X53140000Y12940000D03*
X53140000Y43420000D03*
X53140000Y40880000D03*
X53140000Y38340000D03*
X25200000Y45960000D03*
X53140000Y33260000D03*
X53140000Y30720000D03*
X53140000Y28180000D03*
X53140000Y25640000D03*
X53140000Y23100000D03*
X53140000Y20560000D03*
X53140000Y18020000D03*
X53140000Y45960000D03*
X53140000Y15480000D03*
X25200000Y20560000D03*
X48060000Y45960000D03*
X48060000Y43420000D03*
X48060000Y48500000D03*
X48060000Y40880000D03*
X48060000Y38340000D03*
X48060000Y35800000D03*
X48060000Y33260000D03*
X48060000Y30720000D03*
X48060000Y28180000D03*
X48060000Y25640000D03*
X48060000Y23100000D03*
X48060000Y20560000D03*
X48060000Y18020000D03*
X48060000Y15480000D03*
X48060000Y12940000D03*
D11*
X32230000Y74420000D02*
X32230000Y75920000D01*
X29690000Y75920000D02*
X29690000Y74420000D01*
X10840000Y23320000D02*
X10840000Y21820000D01*
X8300000Y21820000D02*
X8300000Y23320000D01*
X5760000Y23320000D02*
X5760000Y21820000D01*
X13380000Y21820000D02*
X13380000Y23320000D01*
X10800000Y31120000D02*
X10800000Y32620000D01*
X8260000Y32620000D02*
X8260000Y31120000D01*
X5720000Y31120000D02*
X5720000Y32620000D01*
X13340000Y32620000D02*
X13340000Y31120000D01*
X10980000Y6610000D02*
X10980000Y5110000D01*
X8440000Y5110000D02*
X8440000Y6610000D01*
X5900000Y6610000D02*
X5900000Y5110000D01*
X13520000Y5110000D02*
X13520000Y6610000D01*
X16060000Y6610000D02*
X16060000Y5110000D01*
X10760000Y40020000D02*
X10760000Y41520000D01*
X8220000Y41520000D02*
X8220000Y40020000D01*
X5680000Y40020000D02*
X5680000Y41520000D01*
X13300000Y41520000D02*
X13300000Y40020000D01*
D12*
X57460000Y73240000D03*
X57460000Y71340000D03*
D13*
X12890000Y68440000D03*
X10990000Y68440000D03*
D14*
X39500000Y52482000D03*
X39500000Y50958000D03*
X31990000Y53632000D03*
X31990000Y52108000D03*
X53120000Y53072000D03*
X53120000Y51548000D03*
D15*
X49158000Y76316000D03*
X49158000Y73776000D03*
X49158000Y65648000D03*
X49158000Y63108000D03*
X67700000Y63108000D03*
X67700000Y65648000D03*
X67700000Y73776000D03*
X67700000Y76316000D03*
X16096000Y76582000D03*
X13556000Y76582000D03*
X5428000Y76582000D03*
X2888000Y76582000D03*
X2888000Y58040000D03*
X5428000Y58040000D03*
X13556000Y58040000D03*
X16096000Y58040000D03*
D16*
X61494800Y73720000D02*
X63425200Y73720000D01*
X63425200Y71180000D02*
X61494800Y71180000D01*
X61494800Y68640000D02*
X63425200Y68640000D01*
X63425200Y66100000D02*
X61494800Y66100000D01*
X13420000Y63835200D02*
X13420000Y61904800D01*
X10880000Y61904800D02*
X10880000Y63835200D01*
X8340000Y63835200D02*
X8340000Y61904800D01*
X5800000Y61904800D02*
X5800000Y63835200D01*
D11*
X13080000Y50420000D02*
X13080000Y48920000D01*
X10540000Y48920000D02*
X10540000Y50420000D01*
X8000000Y50420000D02*
X8000000Y48920000D01*
D17*
X57620000Y4080000D03*
X56350000Y4080000D03*
X57620000Y5350000D03*
X56350000Y5350000D03*
X57620000Y6620000D03*
X56350000Y6620000D03*
X57620000Y7890000D03*
X56350000Y7890000D03*
X57620000Y9160000D03*
X56350000Y9160000D03*
D18*
X61530000Y23110000D03*
X64070000Y23110000D03*
X61530000Y25650000D03*
X64070000Y25650000D03*
X61530000Y28190000D03*
X64070000Y28190000D03*
X61530000Y30730000D03*
X64070000Y30730000D03*
X61530000Y33270000D03*
X64070000Y33270000D03*
X61530000Y35810000D03*
X64070000Y35810000D03*
X61530000Y38350000D03*
X64070000Y38350000D03*
X61530000Y40890000D03*
X64070000Y40890000D03*
D19*
X58830000Y58600000D03*
D20*
X61370000Y58600000D03*
D19*
X20030000Y59700000D03*
D20*
X22570000Y59700000D03*
D21*
X30778000Y65500000D03*
D20*
X27222000Y65500000D03*
D14*
X43560000Y52512000D03*
X43560000Y50988000D03*
D22*
X57462000Y15390000D03*
X55938000Y15390000D03*
D12*
X36270000Y69070000D03*
X36270000Y70970000D03*
X45990000Y68530000D03*
X45990000Y70430000D03*
D23*
X49158000Y77070000D02*
X34130000Y77070000D01*
X32230000Y75170000D01*
X49158000Y73776000D02*
X49158000Y77070000D01*
X49158000Y76316000D02*
X49158000Y73776000D01*
X49158000Y76316000D02*
X67700000Y76316000D01*
X67700000Y73776000D01*
X67700000Y68600000D01*
D24*
X62500000Y68600000D01*
D23*
X62460000Y68640000D01*
X32230000Y75170000D02*
X32230000Y75770000D01*
X30318000Y77682000D01*
X17196000Y77682000D01*
X16096000Y76582000D01*
X13556000Y76582000D01*
D24*
X8340000Y71366000D01*
X8340000Y62870000D01*
X8340000Y60160000D01*
X10460000Y58040000D02*
X13556000Y58040000D01*
X10460000Y58040000D02*
X8340000Y60160000D01*
X13556000Y58040000D02*
X16096000Y58040000D01*
X23310000Y45960000D02*
X25200000Y45960000D01*
X22220000Y44870000D02*
X22220000Y30080000D01*
X24100000Y28200000D01*
D23*
X25200000Y28180000D02*
X26450000Y28200000D01*
D24*
X22220000Y44870000D02*
X23310000Y45960000D01*
X24100000Y28200000D02*
X26450000Y28200000D01*
D23*
X53320000Y35980000D02*
X56640000Y35980000D01*
X53320000Y35980000D02*
X53140000Y35800000D01*
D24*
X56640000Y35980000D02*
X56640000Y21240000D01*
X56640000Y35800000D02*
X56640000Y45160000D01*
X56640000Y35800000D02*
X53140000Y35800000D01*
X56640000Y45160000D02*
X55840000Y45960000D01*
X53140000Y45960000D01*
X8260000Y31870000D02*
X8260000Y22610000D01*
D23*
X8300000Y22570000D01*
D24*
X8300000Y14200000D01*
X10980000Y11520000D02*
X10980000Y5860000D01*
X10980000Y11520000D02*
X8300000Y14200000D01*
X13556000Y50146000D02*
X13556000Y58040000D01*
D23*
X13556000Y50146000D02*
X13080000Y49670000D01*
D24*
X13080000Y44920000D01*
D23*
X13300000Y44700000D01*
D24*
X13300000Y40770000D01*
X13300000Y36000000D01*
X12600000Y35300000D02*
X9090000Y35300000D01*
X8260000Y34470000D01*
X8260000Y31870000D01*
X12600000Y35300000D02*
X13300000Y36000000D01*
X59440000Y68640000D02*
X62460000Y68640000D01*
X59440000Y68640000D02*
X58700000Y67900000D01*
X32230000Y66952000D02*
X30778000Y65500000D01*
X32230000Y66952000D02*
X32230000Y75170000D01*
X20030000Y59700000D02*
X17756000Y59700000D01*
X16096000Y58040000D01*
X28328000Y63050000D02*
X30778000Y65500000D01*
X28328000Y63050000D02*
X21000000Y63050000D01*
X20030000Y62080000D01*
X20030000Y59700000D01*
D25*
X1000000Y70100000D03*
X1000000Y65100000D03*
X1000000Y60000000D03*
X1000000Y55000000D03*
X1000000Y50000000D03*
X1000000Y45000000D03*
X1000000Y40000000D03*
X1000000Y35000000D03*
X1000000Y30000000D03*
X1000000Y25000000D03*
X1000000Y20000000D03*
X1000000Y15000000D03*
X1000000Y10000000D03*
X1000000Y5000000D03*
X1200000Y1200000D03*
X1000000Y75100000D03*
X5000000Y1000000D03*
X10000000Y1000000D03*
X15000000Y1000000D03*
X20270000Y1090000D03*
X42100000Y12790000D03*
X43950000Y11260000D03*
X45800000Y9280000D03*
X50620000Y8830000D03*
X54270000Y8830000D03*
X54500000Y6220000D03*
X55000000Y1000000D03*
X60000000Y1000000D03*
X65000000Y1000000D03*
X10000000Y77900000D03*
X20000000Y77900000D03*
X25000000Y77900000D03*
X30000000Y77900000D03*
X35000000Y77900000D03*
X40000000Y77900000D03*
X45000000Y77900000D03*
X50000000Y77900000D03*
X55000000Y77900000D03*
X60000000Y77900000D03*
X65000000Y77900000D03*
X68900000Y71600000D03*
X68900000Y67800000D03*
X69000000Y59900000D03*
X69000000Y54900000D03*
X69000000Y49900000D03*
X69000000Y44900000D03*
X69000000Y39900000D03*
X69000000Y34900000D03*
X69000000Y29900000D03*
X69000000Y24900000D03*
X69000000Y19900000D03*
X69000000Y14900000D03*
X69000000Y9900000D03*
X69000000Y4900000D03*
X68800000Y1200000D03*
D24*
X57552000Y16938000D02*
X56730000Y17760000D01*
D23*
X57552000Y16938000D02*
X57552000Y15480000D01*
X57462000Y15390000D01*
D26*
X64070000Y21320000D02*
X64070000Y23110000D01*
X64070000Y21320000D02*
X63990000Y21240000D01*
X56640000Y21240000D01*
D23*
X57462000Y15390000D02*
X57462000Y15168000D01*
X60750000Y11880000D01*
X60750000Y6570000D01*
X59536000Y5356000D01*
D25*
X20810000Y6310000D03*
X24050000Y9910000D03*
X28910000Y11890000D03*
X31970000Y13510000D03*
X35660000Y13510000D03*
X39530000Y13510000D03*
D26*
X56350000Y5350000D02*
X57620000Y5350000D01*
X59530000Y5350000D01*
X59536000Y5356000D01*
D24*
X58700000Y58730000D02*
X58700000Y67900000D01*
D27*
X58700000Y58730000D02*
X58830000Y58600000D01*
D26*
X56350000Y5350000D02*
X55210000Y5350000D01*
D24*
X56730000Y17760000D02*
X56730000Y21150000D01*
X56640000Y21240000D01*
X49158000Y57034000D02*
X49158000Y63108000D01*
D27*
X49158000Y57034000D02*
X53120000Y53072000D01*
D26*
X10990000Y62980000D02*
X10990000Y68440000D01*
X10990000Y62980000D02*
X10880000Y62870000D01*
X57460000Y71340000D02*
X62300000Y71340000D01*
X62460000Y71180000D01*
D28*
X28020000Y51440000D03*
D24*
X28020000Y52410000D01*
X30060000Y54450000D02*
X31860000Y54450000D01*
D29*
X31860000Y53762000D01*
X31990000Y53632000D01*
D24*
X30060000Y54450000D02*
X28020000Y52410000D01*
D23*
X62460000Y66100000D02*
X62512000Y66048000D01*
X67300000Y66048000D02*
X67700000Y65648000D01*
D24*
X67300000Y66048000D02*
X62512000Y66048000D01*
D23*
X67700000Y65648000D02*
X67700000Y63108000D01*
D28*
X39500000Y57500000D03*
D27*
X39500000Y52482000D01*
D28*
X19280000Y56300000D03*
D23*
X39530000Y52512000D02*
X43560000Y52512000D01*
X39530000Y52512000D02*
X39500000Y52482000D01*
D24*
X19280000Y56300000D02*
X19287303Y19827303D01*
D23*
X11430000Y14400000D02*
X11340000Y14490000D01*
D28*
X11340000Y14490000D03*
D24*
X13860000Y14400000D02*
X19287303Y19827303D01*
X13860000Y14400000D02*
X11430000Y14400000D01*
X61370000Y44820000D02*
X61370000Y58600000D01*
X61370000Y44820000D02*
X61370000Y41050000D01*
D23*
X61530000Y40890000D01*
X61820000Y44370000D02*
X61370000Y44820000D01*
X61820000Y44370000D02*
X65520000Y44370000D01*
X66510000Y43380000D01*
X66510000Y19080000D01*
X62280000Y19080000D01*
X61020000Y17820000D01*
X61020000Y14580000D01*
X62820000Y12780000D02*
X62820000Y5850000D01*
X60930000Y3960000D01*
X57740000Y3960000D01*
X57620000Y4080000D01*
X62820000Y12780000D02*
X61020000Y14580000D01*
X57620000Y4080000D02*
X56350000Y4080000D01*
D30*
X36270000Y61470000D02*
X36270000Y69070000D01*
D25*
X36270000Y61470000D03*
D24*
X32500000Y30040000D02*
X28000000Y25540000D01*
X25200000Y25540000D01*
X32500000Y30040000D02*
X32500000Y39000000D01*
D25*
X32500000Y39000000D03*
D24*
X8000000Y49670000D02*
X5680000Y47350000D01*
X5680000Y40770000D01*
X5590000Y40680000D01*
X5590000Y32000000D01*
D23*
X5720000Y31870000D01*
D24*
X5630000Y31780000D01*
X5630000Y22700000D01*
D23*
X5760000Y22570000D01*
D24*
X25200000Y48500000D02*
X22780000Y52190000D01*
X22570000Y52400000D02*
X22570000Y59700000D01*
D23*
X22570000Y52400000D02*
X22780000Y52190000D01*
D24*
X25200000Y48500000D02*
X30860000Y48500000D01*
X31950000Y49590000D01*
X31950000Y51210000D01*
X32040000Y51300000D01*
D29*
X31990000Y51350000D01*
X31990000Y52108000D01*
D24*
X32500000Y46860000D02*
X32500000Y39000000D01*
X32500000Y46860000D02*
X30860000Y48500000D01*
D30*
X31990000Y52108000D02*
X34018000Y52108000D01*
X36990000Y55080000D02*
X36990000Y59130000D01*
X36990000Y55080000D02*
X34018000Y52108000D01*
X36990000Y59130000D02*
X45990000Y68130000D01*
X45990000Y68530000D01*
D23*
X53140000Y48600000D02*
X53140000Y48500000D01*
X53140000Y48600000D02*
X53140000Y51528000D01*
X53120000Y51548000D01*
D27*
X45768000Y48600000D02*
X43560000Y50808000D01*
X43560000Y50988000D01*
D24*
X45768000Y48600000D02*
X53140000Y48600000D01*
D23*
X13340000Y31870000D02*
X13340000Y22610000D01*
X13380000Y22570000D01*
X10800000Y22610000D02*
X10800000Y31870000D01*
X10800000Y22610000D02*
X10840000Y22570000D01*
D25*
X44240000Y18100000D03*
D26*
X45320000Y13150000D02*
X47240000Y11230000D01*
X45320000Y17020000D02*
X44240000Y18100000D01*
X45320000Y17020000D02*
X45320000Y13150000D01*
X47240000Y11230000D02*
X58520000Y11230000D01*
X59230000Y10520000D01*
X59230000Y8330000D01*
X58790000Y7890000D01*
X57620000Y7890000D01*
D25*
X44270000Y16570000D03*
D26*
X44270000Y12890000D02*
X46860000Y10300000D01*
X44270000Y12890000D02*
X44270000Y16570000D01*
X46860000Y10300000D02*
X57600000Y10300000D01*
X57600000Y9180000D01*
X57620000Y9160000D01*
X57460000Y73240000D02*
X57940000Y73720000D01*
X62460000Y73720000D01*
X13420000Y67910000D02*
X12890000Y68440000D01*
X13420000Y67910000D02*
X13420000Y62870000D01*
D25*
X39290000Y36780000D03*
D26*
X39280000Y36846919D01*
X39280000Y48110000D01*
D25*
X39280000Y48110000D03*
X37450000Y40980000D03*
D26*
X37450000Y49600000D01*
D25*
X37450000Y49600000D03*
X35630000Y43490000D03*
D26*
X35629313Y43490688D01*
X35610000Y51110000D01*
D25*
X35610000Y51110000D03*
D26*
X53140000Y15480000D02*
X53050000Y15390000D01*
D23*
X55938000Y15390000D01*
D27*
X45140000Y45318000D02*
X39500000Y50958000D01*
D28*
X45140000Y20600000D03*
D24*
X45140000Y45318000D01*
D30*
X39380000Y70970000D02*
X36270000Y70970000D01*
X39380000Y70970000D02*
X40230000Y71820000D01*
D25*
X40230000Y71820000D03*
D30*
X45990000Y71820000D02*
X45990000Y70430000D01*
X45990000Y71820000D02*
X46080000Y71910000D01*
X45990000Y72000000D01*
D25*
X45990000Y72000000D03*
M02*
