G04 EAGLE Gerber RS-274X export*
G75*
%MOMM*%
%FSLAX36Y36*%
%LPD*%
%INTop Copper*%
%IPPOS*%
%AMOC8*
5,1,8,0,0,1.08239X$1,22.5*%
G01*
%ADD10R,1.778000X1.778000*%
%ADD11C,1.500000*%
%ADD12R,1.500000X1.300000*%
%ADD13R,2.540000X2.540000*%
%ADD14C,1.930400*%
%ADD15C,1.000000*%
%ADD16C,1.930400*%
%ADD17P,1.732040X8X202.500000*%
%ADD18C,1.600200*%
%ADD19P,1.732040X8X22.500000*%
%ADD20R,1.200000X1.200000*%
%ADD21C,2.000000*%
%ADD22C,1.016000*%
%ADD23C,0.508000*%
%ADD24C,2.540000*%
%ADD25C,0.750000*%
%ADD26C,1.270000*%
%ADD27C,0.304800*%
%ADD28C,1.200000*%

G36*
X21653109Y330928D02*
X21653109Y330928D01*
X21654994Y331241D01*
X21656891Y331028D01*
X21667100Y333238D01*
X21677391Y334938D01*
X21679072Y335831D01*
X21680941Y336234D01*
X21689925Y341591D01*
X21699125Y346475D01*
X21700434Y347859D01*
X21702078Y348838D01*
X21708884Y356775D01*
X21716050Y364338D01*
X21716850Y366066D01*
X21718097Y367519D01*
X21722019Y377216D01*
X21726400Y386666D01*
X21726609Y388559D01*
X21727325Y390331D01*
X21729200Y407128D01*
X21729200Y6321041D01*
X25808956Y10400797D01*
X28477394Y10400797D01*
X28486353Y10402263D01*
X28495416Y10402959D01*
X28498441Y10404241D01*
X28501681Y10404772D01*
X28509709Y10409019D01*
X28518075Y10412566D01*
X28521328Y10415166D01*
X28523431Y10416278D01*
X28525678Y10418644D01*
X28531275Y10423116D01*
X30863300Y12755141D01*
X40596697Y12755141D01*
X45178722Y8173116D01*
X45186094Y8167819D01*
X45192994Y8161900D01*
X45196038Y8160669D01*
X45198703Y8158753D01*
X45207391Y8156075D01*
X45215806Y8152672D01*
X45219934Y8152213D01*
X45222222Y8151506D01*
X45225500Y8151591D01*
X45232603Y8150797D01*
X53751041Y8150797D01*
X53780797Y8121041D01*
X53780797Y453134D01*
X53781125Y451138D01*
X53780903Y449138D01*
X53783103Y439047D01*
X53784772Y428847D01*
X53785713Y427066D01*
X53786144Y425094D01*
X53791453Y416219D01*
X53796278Y407097D01*
X53797741Y405706D01*
X53798778Y403972D01*
X53806625Y397263D01*
X53814116Y390144D01*
X53815950Y389291D01*
X53817481Y387981D01*
X53827053Y384125D01*
X53836428Y379763D01*
X53838434Y379538D01*
X53840306Y378784D01*
X53857106Y376934D01*
X69623909Y399459D01*
X69625794Y399772D01*
X69627691Y399559D01*
X69637900Y401769D01*
X69648191Y403469D01*
X69649872Y404363D01*
X69651741Y404766D01*
X69660725Y410122D01*
X69669925Y415006D01*
X69671234Y416391D01*
X69672878Y417369D01*
X69679684Y425306D01*
X69686850Y432869D01*
X69687650Y434597D01*
X69688897Y436050D01*
X69692819Y445747D01*
X69697200Y455197D01*
X69697409Y457091D01*
X69698125Y458863D01*
X69700000Y475659D01*
X69700000Y78623800D01*
X69699681Y78625741D01*
X69699900Y78627691D01*
X69697700Y78637853D01*
X69696025Y78648088D01*
X69695109Y78649816D01*
X69694694Y78651741D01*
X69689359Y78660688D01*
X69684519Y78669838D01*
X69683100Y78671188D01*
X69682091Y78672878D01*
X69674206Y78679641D01*
X69666681Y78686791D01*
X69664897Y78687619D01*
X69663409Y78688897D01*
X69653797Y78692784D01*
X69644369Y78697172D01*
X69642416Y78697391D01*
X69640597Y78698125D01*
X69623800Y78700000D01*
X376197Y78700000D01*
X374256Y78699681D01*
X372306Y78699900D01*
X362144Y78697700D01*
X351909Y78696025D01*
X350181Y78695109D01*
X348256Y78694694D01*
X339309Y78689359D01*
X330159Y78684519D01*
X328809Y78683100D01*
X327119Y78682091D01*
X320356Y78674206D01*
X313206Y78666681D01*
X312378Y78664897D01*
X311100Y78663409D01*
X307213Y78653797D01*
X302825Y78644369D01*
X302606Y78642416D01*
X301872Y78640597D01*
X299997Y78623800D01*
X299997Y376734D01*
X300325Y374738D01*
X300103Y372738D01*
X302303Y362647D01*
X303972Y352447D01*
X304913Y350666D01*
X305344Y348694D01*
X310653Y339819D01*
X315478Y330697D01*
X316941Y329306D01*
X317978Y327572D01*
X325825Y320863D01*
X333316Y313744D01*
X335150Y312891D01*
X336681Y311581D01*
X346253Y307725D01*
X355628Y303363D01*
X357634Y303138D01*
X359506Y302384D01*
X376306Y300534D01*
X21653109Y330928D01*
G37*
%LPC*%
G36*
X1968434Y1923800D02*
X1968434Y1923800D01*
X1923800Y1968434D01*
X1923800Y56493800D01*
X1923481Y56495741D01*
X1923700Y56497691D01*
X1921500Y56507853D01*
X1919825Y56518088D01*
X1918909Y56519816D01*
X1918494Y56521741D01*
X1913159Y56530688D01*
X1908319Y56539838D01*
X1906900Y56541188D01*
X1905891Y56542878D01*
X1898006Y56549641D01*
X1890481Y56556791D01*
X1888697Y56557619D01*
X1887209Y56558897D01*
X1877597Y56562784D01*
X1868169Y56567172D01*
X1866216Y56567391D01*
X1864397Y56568125D01*
X1847600Y56570000D01*
X1535156Y56570000D01*
X1418000Y56687156D01*
X1418000Y59392841D01*
X1535156Y59509997D01*
X1847600Y59509997D01*
X1849541Y59510316D01*
X1851491Y59510097D01*
X1861653Y59512297D01*
X1871888Y59513972D01*
X1873616Y59514888D01*
X1875541Y59515303D01*
X1884488Y59520638D01*
X1893638Y59525478D01*
X1894988Y59526897D01*
X1896678Y59527906D01*
X1903441Y59535791D01*
X1910591Y59543316D01*
X1911419Y59545100D01*
X1912697Y59546588D01*
X1916581Y59556194D01*
X1920972Y59565628D01*
X1921191Y59567581D01*
X1921925Y59569400D01*
X1923800Y59586197D01*
X1923800Y75035800D01*
X1923481Y75037741D01*
X1923700Y75039691D01*
X1921500Y75049853D01*
X1919825Y75060088D01*
X1918909Y75061816D01*
X1918494Y75063741D01*
X1913159Y75072688D01*
X1908319Y75081838D01*
X1906900Y75083188D01*
X1905891Y75084878D01*
X1898006Y75091641D01*
X1890481Y75098791D01*
X1888697Y75099619D01*
X1887209Y75100897D01*
X1877597Y75104784D01*
X1868169Y75109172D01*
X1866216Y75109391D01*
X1864397Y75110125D01*
X1847600Y75112000D01*
X1535156Y75112000D01*
X1418000Y75229156D01*
X1418000Y77934841D01*
X1535156Y78051997D01*
X6780841Y78051997D01*
X6897997Y77934841D01*
X6897997Y77152397D01*
X6898316Y77150456D01*
X6898097Y77148506D01*
X6900297Y77138344D01*
X6901972Y77128109D01*
X6902888Y77126381D01*
X6903303Y77124456D01*
X6908638Y77115509D01*
X6913478Y77106359D01*
X6914897Y77105009D01*
X6915906Y77103319D01*
X6923791Y77096556D01*
X6931316Y77089406D01*
X6933100Y77088578D01*
X6934588Y77087300D01*
X6944200Y77083413D01*
X6953628Y77079025D01*
X6955581Y77078806D01*
X6957400Y77078072D01*
X6974197Y77076197D01*
X68031563Y77076197D01*
X68076197Y77031563D01*
X68076197Y67194197D01*
X68076516Y67192256D01*
X68076297Y67190306D01*
X68078497Y67180144D01*
X68080172Y67169909D01*
X68081088Y67168181D01*
X68081503Y67166256D01*
X68086838Y67157309D01*
X68091678Y67148159D01*
X68093097Y67146809D01*
X68094106Y67145119D01*
X68101991Y67138356D01*
X68109516Y67131206D01*
X68111300Y67130378D01*
X68112788Y67129100D01*
X68122400Y67125213D01*
X68131828Y67120825D01*
X68133781Y67120606D01*
X68135600Y67119872D01*
X68152397Y67117997D01*
X69052841Y67117997D01*
X69169997Y67000841D01*
X69169997Y61755156D01*
X69052841Y61638000D01*
X68152397Y61638000D01*
X68150456Y61637681D01*
X68148506Y61637900D01*
X68138344Y61635700D01*
X68128109Y61634025D01*
X68126381Y61633109D01*
X68124456Y61632694D01*
X68115509Y61627359D01*
X68106359Y61622519D01*
X68105009Y61621100D01*
X68103319Y61620091D01*
X68096556Y61612206D01*
X68089406Y61604681D01*
X68088578Y61602897D01*
X68087300Y61601409D01*
X68083413Y61591797D01*
X68079025Y61582369D01*
X68078806Y61580416D01*
X68078072Y61578597D01*
X68076197Y61561800D01*
X68076197Y1968434D01*
X68031563Y1923800D01*
X56828434Y1923800D01*
X55296769Y3455469D01*
X55296766Y3455472D01*
X55273800Y3478434D01*
X55273663Y9567603D01*
X55273344Y9569541D01*
X55273563Y9571491D01*
X55271363Y9581650D01*
X55269688Y9591888D01*
X55268772Y9593616D01*
X55268356Y9595541D01*
X55263031Y9604472D01*
X55258181Y9613641D01*
X55256759Y9614994D01*
X55255753Y9616678D01*
X55247863Y9623444D01*
X55240341Y9630591D01*
X55238566Y9631416D01*
X55237072Y9632697D01*
X55227434Y9636594D01*
X55218028Y9640972D01*
X55216078Y9641191D01*
X55214259Y9641925D01*
X55197463Y9643800D01*
X46498434Y9643800D01*
X41930753Y14211481D01*
X41923381Y14216778D01*
X41916481Y14222697D01*
X41913438Y14223928D01*
X41910772Y14225844D01*
X41902084Y14228522D01*
X41893669Y14231925D01*
X41889541Y14232384D01*
X41887253Y14233091D01*
X41883975Y14233006D01*
X41876872Y14233800D01*
X30303125Y14233800D01*
X30294166Y14232334D01*
X30285103Y14231638D01*
X30282078Y14230356D01*
X30278838Y14229825D01*
X30270809Y14225578D01*
X30262444Y14222031D01*
X30259191Y14219431D01*
X30257088Y14218319D01*
X30254841Y14215953D01*
X30249244Y14211481D01*
X27815634Y11777872D01*
X24877197Y11777872D01*
X24868238Y11776406D01*
X24859175Y11775709D01*
X24856150Y11774428D01*
X24852909Y11773897D01*
X24844881Y11769650D01*
X24836516Y11766103D01*
X24833263Y11763503D01*
X24831159Y11762391D01*
X24828913Y11760025D01*
X24823316Y11755553D01*
X20078516Y7010753D01*
X20073219Y7003381D01*
X20067300Y6996481D01*
X20066069Y6993438D01*
X20064153Y6990772D01*
X20061475Y6982084D01*
X20058072Y6973669D01*
X20057613Y6969541D01*
X20056906Y6967253D01*
X20056991Y6963975D01*
X20056197Y6956872D01*
X20056197Y1968434D01*
X20011563Y1923800D01*
X1968434Y1923800D01*
G37*
%LPD*%
D10*
X25200000Y25540000D03*
X53140000Y48500000D03*
X25200000Y43420000D03*
X25200000Y40880000D03*
X25200000Y38340000D03*
X25200000Y35800000D03*
X25200000Y33260000D03*
X25200000Y30720000D03*
X25200000Y28180000D03*
X25200000Y48500000D03*
X25200000Y23100000D03*
X25200000Y18020000D03*
X53140000Y35800000D03*
X25200000Y15480000D03*
X25200000Y12940000D03*
X53140000Y12940000D03*
X53140000Y43420000D03*
X53140000Y40880000D03*
X53140000Y38340000D03*
X25200000Y45960000D03*
X53140000Y33260000D03*
X53140000Y30720000D03*
X53140000Y28180000D03*
X53140000Y25640000D03*
X53140000Y23100000D03*
X53140000Y20560000D03*
X53140000Y18020000D03*
X53140000Y45960000D03*
X53140000Y15480000D03*
X25200000Y20560000D03*
X48060000Y45960000D03*
X48060000Y43420000D03*
X48060000Y48500000D03*
X48060000Y40880000D03*
X48060000Y38340000D03*
X48060000Y35800000D03*
X48060000Y33260000D03*
X48060000Y30720000D03*
X48060000Y28180000D03*
X48060000Y25640000D03*
X48060000Y23100000D03*
X48060000Y20560000D03*
X48060000Y18020000D03*
X48060000Y15480000D03*
X48060000Y12940000D03*
D11*
X32230000Y74420000D02*
X32230000Y75920000D01*
X29690000Y75920000D02*
X29690000Y74420000D01*
X10840000Y23320000D02*
X10840000Y21820000D01*
X8300000Y21820000D02*
X8300000Y23320000D01*
X5760000Y23320000D02*
X5760000Y21820000D01*
X13380000Y21820000D02*
X13380000Y23320000D01*
X10800000Y31120000D02*
X10800000Y32620000D01*
X8260000Y32620000D02*
X8260000Y31120000D01*
X5720000Y31120000D02*
X5720000Y32620000D01*
X13340000Y32620000D02*
X13340000Y31120000D01*
X10980000Y6610000D02*
X10980000Y5110000D01*
X8440000Y5110000D02*
X8440000Y6610000D01*
X5900000Y6610000D02*
X5900000Y5110000D01*
X13520000Y5110000D02*
X13520000Y6610000D01*
X16060000Y6610000D02*
X16060000Y5110000D01*
X10760000Y40020000D02*
X10760000Y41520000D01*
X8220000Y41520000D02*
X8220000Y40020000D01*
X5680000Y40020000D02*
X5680000Y41520000D01*
X13300000Y41520000D02*
X13300000Y40020000D01*
D12*
X31340000Y20430000D03*
X31340000Y22330000D03*
X18640000Y23550000D03*
X18640000Y25450000D03*
D13*
X49158000Y76316000D03*
X49158000Y73776000D03*
X49158000Y65648000D03*
X49158000Y63108000D03*
X67700000Y63108000D03*
X67700000Y65648000D03*
X67700000Y73776000D03*
X67700000Y76316000D03*
X16096000Y76582000D03*
X13556000Y76582000D03*
X5428000Y76582000D03*
X2888000Y76582000D03*
X2888000Y58040000D03*
X5428000Y58040000D03*
X13556000Y58040000D03*
X16096000Y58040000D03*
D14*
X61494800Y73720000D02*
X63425200Y73720000D01*
X63425200Y71180000D02*
X61494800Y71180000D01*
X61494800Y68640000D02*
X63425200Y68640000D01*
X63425200Y66100000D02*
X61494800Y66100000D01*
X13420000Y63835200D02*
X13420000Y61904800D01*
X10880000Y61904800D02*
X10880000Y63835200D01*
X8340000Y63835200D02*
X8340000Y61904800D01*
X5800000Y61904800D02*
X5800000Y63835200D01*
D11*
X13080000Y50420000D02*
X13080000Y48920000D01*
X10540000Y48920000D02*
X10540000Y50420000D01*
X8000000Y50420000D02*
X8000000Y48920000D01*
D15*
X57620000Y4080000D03*
X56350000Y4080000D03*
X57620000Y5350000D03*
X56350000Y5350000D03*
X57620000Y6620000D03*
X56350000Y6620000D03*
X57620000Y7890000D03*
X56350000Y7890000D03*
X57620000Y9160000D03*
X56350000Y9160000D03*
D16*
X61530000Y23110000D03*
X64070000Y23110000D03*
X61530000Y25650000D03*
X64070000Y25650000D03*
X61530000Y28190000D03*
X64070000Y28190000D03*
X61530000Y30730000D03*
X64070000Y30730000D03*
X61530000Y33270000D03*
X64070000Y33270000D03*
X61530000Y35810000D03*
X64070000Y35810000D03*
X61530000Y38350000D03*
X64070000Y38350000D03*
X61530000Y40890000D03*
X64070000Y40890000D03*
D17*
X58830000Y58600000D03*
D18*
X61370000Y58600000D03*
D17*
X20030000Y59700000D03*
D18*
X22570000Y59700000D03*
D19*
X30778000Y65500000D03*
D18*
X27222000Y65500000D03*
D20*
X38160000Y74220000D03*
X38160000Y72120000D03*
X42930000Y74040000D03*
X42930000Y71940000D03*
D21*
X24520000Y45980000D02*
X16770000Y45980000D01*
X13080000Y49670000D01*
X24540000Y45960000D02*
X25200000Y45960000D01*
D22*
X24540000Y45960000D02*
X24520000Y45980000D01*
D23*
X53140000Y45960000D02*
X59740000Y45960000D01*
X64020000Y41680000D01*
X64070000Y40890000D02*
X64070000Y38350000D01*
X64070000Y40890000D02*
X64020000Y40940000D01*
X64020000Y41680000D01*
D24*
X32230000Y75170000D02*
X32300000Y75240000D01*
X32300000Y77430000D01*
X37980000Y77430000D01*
X42660000Y77430000D01*
X68400000Y77430000D01*
X68430000Y77400000D01*
X68430000Y68900000D01*
D25*
X1000000Y70100000D03*
X1000000Y65100000D03*
X1000000Y60000000D03*
X1000000Y55000000D03*
X1000000Y50000000D03*
X1000000Y45000000D03*
X1000000Y40000000D03*
X1000000Y35000000D03*
X1000000Y30000000D03*
X1000000Y25000000D03*
X1000000Y20000000D03*
X1000000Y15000000D03*
X1000000Y10000000D03*
X1000000Y5000000D03*
X1200000Y1200000D03*
X1000000Y75100000D03*
X5000000Y1000000D03*
X10000000Y1000000D03*
X15000000Y1000000D03*
X20270000Y1090000D03*
X42100000Y12790000D03*
X43950000Y11260000D03*
X45800000Y9280000D03*
X50620000Y8830000D03*
X54270000Y8830000D03*
X54500000Y6220000D03*
X55000000Y1000000D03*
X60000000Y1000000D03*
X65000000Y1000000D03*
X10000000Y77900000D03*
X20000000Y77900000D03*
X25000000Y77900000D03*
X30000000Y77900000D03*
X35000000Y77900000D03*
X40000000Y77900000D03*
X45000000Y77900000D03*
X50000000Y77900000D03*
X55000000Y77900000D03*
X60000000Y77900000D03*
X65000000Y77900000D03*
X68900000Y71600000D03*
X68900000Y67800000D03*
X69000000Y59900000D03*
X69000000Y54900000D03*
X69000000Y49900000D03*
X69000000Y44900000D03*
X69000000Y39900000D03*
X69000000Y34900000D03*
X69000000Y29900000D03*
X69000000Y24900000D03*
X69000000Y19900000D03*
X69000000Y14900000D03*
X69000000Y9900000D03*
X69000000Y4900000D03*
X68800000Y1200000D03*
X20810000Y6310000D03*
X24050000Y9910000D03*
X28910000Y11890000D03*
X31970000Y13510000D03*
X35660000Y13510000D03*
X39530000Y13510000D03*
D21*
X48060000Y35800000D02*
X53140000Y35800000D01*
X53140000Y45960000D02*
X48060000Y45960000D01*
X25200000Y45960000D01*
D26*
X10980000Y5860000D02*
X10980000Y1350000D01*
X10620000Y990000D01*
X10610000Y1000000D01*
X10000000Y1000000D01*
D27*
X38160000Y74220000D02*
X38160000Y77250000D01*
X37980000Y77430000D01*
X42930000Y76590000D02*
X42930000Y74040000D01*
X42930000Y76590000D02*
X43110000Y76770000D01*
X42660000Y77220000D01*
X42660000Y77430000D01*
D21*
X9430000Y72580000D02*
X5428000Y76582000D01*
D22*
X2888000Y76582000D01*
X49158000Y64242000D02*
X49158000Y63108000D01*
D21*
X49258000Y65648000D02*
X54790000Y71180000D01*
D22*
X49258000Y65648000D02*
X49158000Y65648000D01*
D21*
X54790000Y71180000D02*
X62460000Y71180000D01*
X10880000Y72580000D02*
X9430000Y72580000D01*
X10880000Y72580000D02*
X20110000Y72580000D01*
X22700000Y75170000D02*
X29690000Y75170000D01*
X22700000Y75170000D02*
X20110000Y72580000D01*
X10880000Y72580000D02*
X10880000Y62870000D01*
D26*
X49158000Y63108000D02*
X49158000Y65648000D01*
D21*
X29690000Y68720000D02*
X29690000Y75170000D01*
X29690000Y68720000D02*
X27222000Y66252000D01*
D22*
X27222000Y65500000D01*
D21*
X29690000Y68720000D02*
X44680000Y68720000D01*
X49158000Y64242000D01*
X5800000Y62870000D02*
X5800000Y58412000D01*
D22*
X5428000Y58040000D01*
X2888000Y58040000D01*
D21*
X5428000Y58040000D02*
X8227863Y55240138D01*
D22*
X28020000Y51440000D02*
X28040416Y51450416D01*
D21*
X20260159Y51469841D01*
X16489863Y55240138D01*
X8227863Y55240138D01*
D28*
X28020000Y51440000D03*
D21*
X56700000Y66100000D02*
X62460000Y66100000D01*
X56700000Y66100000D02*
X48100000Y57500000D01*
X39500000Y57500000D01*
D28*
X39500000Y57500000D03*
D21*
X37890000Y57500000D01*
X36180000Y57500000D01*
X31473106Y57500000D01*
X28473106Y54500000D01*
X21080000Y54500000D01*
X19280000Y56300000D01*
D28*
X19280000Y56300000D03*
D21*
X61370000Y58600000D02*
X63192000Y58600000D01*
X67700000Y63108000D01*
D28*
X11340000Y14490000D03*
D21*
X8440000Y11590000D01*
X8440000Y5860000D01*
D27*
X37890000Y57500000D02*
X37620000Y57770000D01*
D25*
X36270000Y61470000D03*
D27*
X36270000Y57590000D01*
X36180000Y57500000D01*
D25*
X32500000Y39000000D03*
D22*
X50500000Y38200000D02*
X53000000Y38200000D01*
X53140000Y38340000D01*
D21*
X8000000Y49670000D02*
X8000000Y51500000D01*
X9170000Y52670000D01*
X14560000Y52670000D01*
X18730000Y48500000D01*
D23*
X25200000Y25540000D02*
X26410000Y25600000D01*
X18790000Y25600000D01*
X18640000Y25450000D01*
X28130000Y25540000D02*
X31340000Y22330000D01*
X28130000Y25540000D02*
X25200000Y25540000D01*
X53140000Y38340000D02*
X61520000Y38340000D01*
X61530000Y38350000D01*
D21*
X25200000Y48500000D02*
X18730000Y48500000D01*
D22*
X32500000Y39000000D02*
X43530000Y39000000D01*
X44280000Y38250000D01*
X47970000Y38250000D01*
X48060000Y38340000D01*
X52860000Y38340000D01*
X53000000Y38200000D01*
D21*
X53140000Y48500000D02*
X48060000Y48500000D01*
D23*
X25200000Y20560000D02*
X15390000Y20560000D01*
X13380000Y22570000D01*
X26600000Y20430000D02*
X31340000Y20430000D01*
X26600000Y20430000D02*
X25200000Y20560000D01*
X12000000Y24800000D02*
X10840000Y23640000D01*
X10840000Y22570000D01*
X16840000Y23550000D02*
X18640000Y23550000D01*
X16840000Y23550000D02*
X15590000Y24800000D01*
X12000000Y24800000D01*
X18640000Y23450000D02*
X19090000Y23000000D01*
X18640000Y23450000D02*
X18640000Y23550000D01*
X19190000Y23100000D02*
X25200000Y23100000D01*
X19190000Y23100000D02*
X19090000Y23000000D01*
X23210000Y35800000D02*
X10540000Y48470000D01*
X10540000Y49670000D01*
X23210000Y35800000D02*
X25200000Y35800000D01*
X13520000Y15020000D02*
X13520000Y5860000D01*
X13520000Y15020000D02*
X16520000Y18020000D01*
X25200000Y18020000D01*
X44160000Y18020000D02*
X44240000Y18100000D01*
X44160000Y18020000D02*
X25200000Y18020000D01*
D25*
X44240000Y18100000D03*
D23*
X16300000Y6100000D02*
X16060000Y5860000D01*
X16300000Y6100000D02*
X16300000Y14120000D01*
X17660000Y15480000D01*
X25200000Y15480000D01*
X44190000Y16650000D02*
X44270000Y16570000D01*
X44190000Y16650000D02*
X29620000Y16650000D01*
X28450000Y15480000D01*
X25200000Y15480000D01*
D25*
X44270000Y16570000D03*
D23*
X10760000Y39140000D02*
X10760000Y40770000D01*
X10760000Y39140000D02*
X14400000Y35500000D01*
X19200000Y35500000D01*
X24100000Y30600000D01*
X25080000Y30600000D01*
X25200000Y30720000D01*
X8220000Y40770000D02*
X8220000Y41120000D01*
X10200000Y43100000D01*
X14300000Y43100000D01*
X24200000Y33200000D01*
X25140000Y33200000D02*
X25200000Y33260000D01*
X25140000Y33200000D02*
X24200000Y33200000D01*
X53140000Y33260000D02*
X56860000Y33260000D01*
X59410000Y35810000D01*
X61530000Y35810000D01*
X53140000Y33260000D02*
X48060000Y33260000D01*
X53140000Y12940000D02*
X53180000Y12900000D01*
X57000000Y12900000D02*
X66000000Y21900000D01*
X66000000Y24600000D01*
X53460000Y12900000D02*
X53180000Y12900000D01*
X53460000Y12900000D02*
X57000000Y12900000D01*
X66000000Y24600000D02*
X64950000Y25650000D01*
X64070000Y25650000D01*
X53420000Y12940000D02*
X48060000Y12940000D01*
X53420000Y12940000D02*
X53460000Y12900000D01*
X42320000Y15370000D02*
X30070000Y15370000D01*
X27640000Y12940000D01*
X25200000Y12940000D01*
X56600000Y10900000D02*
X66800000Y21100000D01*
X66800000Y26000000D01*
X64610000Y28190000D01*
X64070000Y28190000D01*
X46790000Y10900000D02*
X42320000Y15370000D01*
X46790000Y10900000D02*
X56600000Y10900000D01*
X30200000Y36700000D02*
X28900000Y38000000D01*
X30200000Y36700000D02*
X39290000Y36700000D01*
X39290000Y36780000D01*
D25*
X39290000Y36780000D03*
X39280000Y48110000D03*
D23*
X43170000Y48110000D02*
X45660000Y50600000D01*
X43170000Y48110000D02*
X39280000Y48110000D01*
X58600000Y50600000D02*
X65700000Y43500000D01*
X65700000Y37000000D01*
X58600000Y50600000D02*
X45660000Y50600000D01*
X64710000Y36010000D02*
X65700000Y37000000D01*
X64270000Y36010000D02*
X64070000Y35810000D01*
X64270000Y36010000D02*
X64710000Y36010000D01*
X25540000Y38000000D02*
X25200000Y38340000D01*
X25540000Y38000000D02*
X28900000Y38000000D01*
D25*
X37450000Y40980000D03*
X37450000Y49600000D03*
D23*
X42100000Y49600000D01*
X44400000Y51900000D01*
X59500000Y51900000D02*
X66500000Y44900000D01*
X66500000Y35300000D01*
X59500000Y51900000D02*
X44400000Y51900000D01*
X64450000Y33250000D02*
X66500000Y35300000D01*
X64450000Y33250000D02*
X64090000Y33250000D01*
X64070000Y33270000D01*
X37350000Y40880000D02*
X25200000Y40880000D01*
X37350000Y40880000D02*
X37450000Y40980000D01*
D25*
X35630000Y43490000D03*
X35610000Y51110000D03*
D23*
X41470022Y51170022D02*
X43600000Y53300000D01*
X60100000Y53300000D01*
X41470022Y51170022D02*
X35670022Y51170022D01*
X35610000Y51110000D01*
X67300000Y46100000D02*
X67300000Y33600000D01*
X67300000Y46100000D02*
X60100000Y53300000D01*
X64070000Y30730000D02*
X64430000Y30730000D01*
X67300000Y33600000D01*
X35560000Y43420000D02*
X25200000Y43420000D01*
X35560000Y43420000D02*
X35630000Y43490000D01*
X53140000Y20560000D02*
X56560000Y20560000D01*
X59110000Y23110000D01*
X61530000Y23110000D01*
X53140000Y20560000D02*
X48060000Y20560000D01*
X53140000Y23100000D02*
X53440000Y23400000D01*
X56900000Y23400000D01*
X59200000Y25700000D01*
X61480000Y25700000D01*
X61530000Y25650000D01*
X53140000Y23100000D02*
X48060000Y23100000D01*
X53140000Y25640000D02*
X53550000Y25640000D01*
X56640000Y25640000D01*
X59200000Y28200000D01*
X61440000Y28200000D01*
X61450000Y28190000D02*
X61530000Y28190000D01*
X61450000Y28190000D02*
X61440000Y28200000D01*
X53140000Y25640000D02*
X48060000Y25640000D01*
X53140000Y28180000D02*
X56680000Y28180000D01*
X59200000Y30700000D01*
X61500000Y30700000D01*
X61530000Y30730000D01*
X53140000Y28180000D02*
X48060000Y28180000D01*
X53220000Y30800000D02*
X56800000Y30800000D01*
X59300000Y33300000D01*
X61500000Y33300000D01*
X61530000Y33270000D01*
X53140000Y30720000D02*
X48060000Y30720000D01*
X53140000Y30720000D02*
X53220000Y30800000D01*
D21*
X53140000Y15480000D02*
X48060000Y15480000D01*
D28*
X45140000Y20600000D03*
D21*
X50990000Y17990000D02*
X53110000Y17990000D01*
D22*
X53140000Y18020000D01*
D21*
X45140000Y19570000D02*
X45140000Y20600000D01*
X46690000Y18020000D02*
X48060000Y18020000D01*
X46690000Y18020000D02*
X45140000Y19570000D01*
X48060000Y18020000D02*
X53080000Y18020000D01*
X53110000Y17990000D01*
D23*
X53190000Y43470000D02*
X48510000Y43470000D01*
X48510000Y40860000D02*
X52830000Y40860000D01*
D25*
X40230000Y71820000D03*
D27*
X38460000Y71820000D01*
X38160000Y72120000D01*
D25*
X45990000Y72000000D03*
D27*
X42990000Y72000000D01*
X42930000Y71940000D01*
M02*
