M48
;GenerationSoftware,Autodesk,EAGLE,9.3.0*%
;CreationDate,2020-04-13T10:41:26Z*%
FMAT,2
ICI,OFF
METRIC,TZ,000.000
T5C0.350
T4C0.600
T3C0.800
T2C1.000
T1C3.200
%
G90
M71
T1
X23880Y70840
X4880Y15840
X64880Y15840
T2
X13340Y31870
X5720Y31870
X8260Y31870
X10800Y31870
X13380Y22570
X5760Y22570
X8300Y22570
X10840Y22570
X64070Y40890
X61530Y40890
X64070Y38350
X61530Y38350
X64070Y35810
X61530Y35810
X64070Y33270
X61530Y33270
X64070Y30730
X61530Y30730
X64070Y28190
X61530Y28190
X64070Y25650
X61530Y25650
X64070Y23110
X61530Y23110
X8000Y49670
X10540Y49670
X13080Y49670
X5800Y62870
X8340Y62870
X10880Y62870
X13420Y62870
X62460Y66100
X62460Y68640
X62460Y71180
X62460Y73720
X16096Y58040
X13556Y58040
X5428Y58040
X2888Y58040
X2888Y76582
X5428Y76582
X13556Y76582
X16096Y76582
X67700Y76316
X67700Y73776
X8440Y5860
X67700Y63108
X49158Y63108
X49158Y65648
X49158Y73776
X49158Y76316
X13300Y40770
X5680Y40770
X67700Y65648
X10760Y40770
X16060Y5860
X13520Y5860
X5900Y5860
X32230Y75170
X29690Y75170
X10980Y5860
X8220Y40770
T3
X48060Y23100
X48060Y20560
X48060Y18020
X48060Y15480
X48060Y12940
X58830Y58600
X61370Y58600
X20030Y59700
X22570Y59700
X30778Y65500
X53140Y30720
X28020Y51440
X39500Y57500
X19280Y56300
X11340Y14490
X45140Y20600
X25200Y25540
X53140Y48500
X25200Y43420
X25200Y40880
X25200Y38340
X25200Y35800
X25200Y33260
X25200Y30720
X25200Y28180
X25200Y48500
X25200Y23100
X25200Y18020
X53140Y35800
X25200Y15480
X25200Y12940
X53140Y12940
X53140Y43420
X53140Y40880
X53140Y38340
X25200Y45960
X53140Y33260
X27222Y65500
X53140Y28180
X53140Y25640
X53140Y23100
X53140Y20560
X53140Y18020
X53140Y45960
X53140Y15480
X25200Y20560
X48060Y45960
X48060Y43420
X48060Y48500
X48060Y40880
X48060Y38340
X48060Y35800
X48060Y33260
X48060Y30720
X48060Y28180
X48060Y25640
T4
X57620Y4080
X56350Y4080
X57620Y5350
X56350Y5350
X57620Y6620
X56350Y6620
X56350Y7890
X57620Y9160
X56350Y9160
X57620Y7890
T5
X1000Y25000
X37450Y40980
X39280Y48110
X39290Y36780
X44270Y16570
X44240Y18100
X32500Y39000
X36270Y61470
X39530Y13510
X35660Y13510
X31970Y13510
X28910Y11890
X24050Y9910
X20810Y6310
X68800Y1200
X69000Y4900
X69000Y9900
X69000Y14900
X69000Y19900
X69000Y24900
X69000Y29900
X69000Y34900
X69000Y44900
X69000Y49900
X69000Y54900
X69000Y59900
X68900Y67800
X68900Y71600
X65000Y77900
X60000Y77900
X55000Y77900
X69000Y39900
X45000Y77900
X40000Y77900
X35000Y77900
X30000Y77900
X25000Y77900
X20000Y77900
X10000Y77900
X65000Y1000
X60000Y1000
X50000Y77900
X1000Y70100
X1000Y65100
X1000Y60000
X1000Y55000
X1000Y50000
X54500Y6220
X1000Y45000
X1000Y40000
X1000Y35000
X55000Y1000
X1000Y30000
X50620Y8830
X45800Y9280
X43950Y11260
X42100Y12790
X20270Y1090
X15000Y1000
X10000Y1000
X5000Y1000
X1000Y75100
X54270Y8830
X1000Y5000
X1000Y10000
X1000Y15000
X1000Y20000
X40230Y71820
X45990Y72000
X35610Y51110
X35630Y43490
X37450Y49600
X1200Y1200
M30